<mxfile host="app.diagrams.net" modified="2024-03-31T06:01:31.356Z" agent="Mozilla/5.0 (Windows NT 10.0; Win64; x64) AppleWebKit/537.36 (KHTML, like Gecko) Chrome/121.0.0.0 Safari/537.36" etag="sGBUBg9G9QbuTHsV_XIB" version="24.2.1" type="github">
  <diagram name="Trang-1" id="o5YIHZx7bua2_rq2aWJ0">
    <mxGraphModel dx="1246" dy="559" grid="1" gridSize="10" guides="1" tooltips="1" connect="1" arrows="1" fold="1" page="1" pageScale="1" pageWidth="827" pageHeight="1169" math="0" shadow="0">
      <root>
        <mxCell id="0" />
        <mxCell id="1" parent="0" />
        <mxCell id="bBbA3ng675KR-_iwhl_5-9" value="U:User" style="shape=umlLifeline;perimeter=lifelinePerimeter;whiteSpace=wrap;html=1;container=1;dropTarget=0;collapsible=0;recursiveResize=0;outlineConnect=0;portConstraint=eastwest;newEdgeStyle={&quot;curved&quot;:0,&quot;rounded&quot;:0};" parent="1" vertex="1">
          <mxGeometry x="70" y="40" width="100" height="840" as="geometry" />
        </mxCell>
        <mxCell id="bBbA3ng675KR-_iwhl_5-20" value="" style="html=1;points=[[0,0,0,0,5],[0,1,0,0,-5],[1,0,0,0,5],[1,1,0,0,-5]];perimeter=orthogonalPerimeter;outlineConnect=0;targetShapes=umlLifeline;portConstraint=eastwest;newEdgeStyle={&quot;curved&quot;:0,&quot;rounded&quot;:0};" parent="bBbA3ng675KR-_iwhl_5-9" vertex="1">
          <mxGeometry x="45" y="150" width="10" height="80" as="geometry" />
        </mxCell>
        <mxCell id="bBbA3ng675KR-_iwhl_5-25" value="" style="html=1;points=[[0,0,0,0,5],[0,1,0,0,-5],[1,0,0,0,5],[1,1,0,0,-5]];perimeter=orthogonalPerimeter;outlineConnect=0;targetShapes=umlLifeline;portConstraint=eastwest;newEdgeStyle={&quot;curved&quot;:0,&quot;rounded&quot;:0};" parent="bBbA3ng675KR-_iwhl_5-9" vertex="1">
          <mxGeometry x="45" y="270" width="10" height="180" as="geometry" />
        </mxCell>
        <mxCell id="bBbA3ng675KR-_iwhl_5-61" value="" style="html=1;points=[[0,0,0,0,5],[0,1,0,0,-5],[1,0,0,0,5],[1,1,0,0,-5]];perimeter=orthogonalPerimeter;outlineConnect=0;targetShapes=umlLifeline;portConstraint=eastwest;newEdgeStyle={&quot;curved&quot;:0,&quot;rounded&quot;:0};" parent="bBbA3ng675KR-_iwhl_5-9" vertex="1">
          <mxGeometry x="45" y="540" width="10" height="80" as="geometry" />
        </mxCell>
        <mxCell id="bBbA3ng675KR-_iwhl_5-70" value="" style="html=1;points=[[0,0,0,0,5],[0,1,0,0,-5],[1,0,0,0,5],[1,1,0,0,-5]];perimeter=orthogonalPerimeter;outlineConnect=0;targetShapes=umlLifeline;portConstraint=eastwest;newEdgeStyle={&quot;curved&quot;:0,&quot;rounded&quot;:0};" parent="bBbA3ng675KR-_iwhl_5-9" vertex="1">
          <mxGeometry x="45" y="720" width="10" height="80" as="geometry" />
        </mxCell>
        <mxCell id="bBbA3ng675KR-_iwhl_5-11" value="" style="endArrow=open;endFill=1;endSize=12;html=1;rounded=0;" parent="1" edge="1">
          <mxGeometry width="160" relative="1" as="geometry">
            <mxPoint x="120" y="160" as="sourcePoint" />
            <mxPoint x="280" y="160" as="targetPoint" />
          </mxGeometry>
        </mxCell>
        <mxCell id="bBbA3ng675KR-_iwhl_5-12" value="S:Sever" style="shape=umlLifeline;perimeter=lifelinePerimeter;whiteSpace=wrap;html=1;container=1;dropTarget=0;collapsible=0;recursiveResize=0;outlineConnect=0;portConstraint=eastwest;newEdgeStyle={&quot;curved&quot;:0,&quot;rounded&quot;:0};" parent="1" vertex="1">
          <mxGeometry x="230" y="40" width="100" height="840" as="geometry" />
        </mxCell>
        <mxCell id="bBbA3ng675KR-_iwhl_5-13" value="" style="html=1;points=[[0,0,0,0,5],[0,1,0,0,-5],[1,0,0,0,5],[1,1,0,0,-5]];perimeter=orthogonalPerimeter;outlineConnect=0;targetShapes=umlLifeline;portConstraint=eastwest;newEdgeStyle={&quot;curved&quot;:0,&quot;rounded&quot;:0};" parent="bBbA3ng675KR-_iwhl_5-12" vertex="1">
          <mxGeometry x="45" y="120" width="10" height="30" as="geometry" />
        </mxCell>
        <mxCell id="bBbA3ng675KR-_iwhl_5-21" value="" style="html=1;points=[[0,0,0,0,5],[0,1,0,0,-5],[1,0,0,0,5],[1,1,0,0,-5]];perimeter=orthogonalPerimeter;outlineConnect=0;targetShapes=umlLifeline;portConstraint=eastwest;newEdgeStyle={&quot;curved&quot;:0,&quot;rounded&quot;:0};" parent="bBbA3ng675KR-_iwhl_5-12" vertex="1">
          <mxGeometry x="45" y="200" width="10" height="70" as="geometry" />
        </mxCell>
        <mxCell id="bBbA3ng675KR-_iwhl_5-27" value="" style="html=1;points=[[0,0,0,0,5],[0,1,0,0,-5],[1,0,0,0,5],[1,1,0,0,-5]];perimeter=orthogonalPerimeter;outlineConnect=0;targetShapes=umlLifeline;portConstraint=eastwest;newEdgeStyle={&quot;curved&quot;:0,&quot;rounded&quot;:0};" parent="bBbA3ng675KR-_iwhl_5-12" vertex="1">
          <mxGeometry x="45" y="350" width="10" height="190" as="geometry" />
        </mxCell>
        <mxCell id="bBbA3ng675KR-_iwhl_5-65" value="" style="html=1;points=[[0,0,0,0,5],[0,1,0,0,-5],[1,0,0,0,5],[1,1,0,0,-5]];perimeter=orthogonalPerimeter;outlineConnect=0;targetShapes=umlLifeline;portConstraint=eastwest;newEdgeStyle={&quot;curved&quot;:0,&quot;rounded&quot;:0};" parent="bBbA3ng675KR-_iwhl_5-12" vertex="1">
          <mxGeometry x="45" y="620" width="10" height="100" as="geometry" />
        </mxCell>
        <mxCell id="bBbA3ng675KR-_iwhl_5-15" value="1: Đồng ý điều kiện ()" style="text;html=1;align=center;verticalAlign=middle;resizable=0;points=[];autosize=1;strokeColor=none;fillColor=none;" parent="1" vertex="1">
          <mxGeometry x="115" y="130" width="140" height="30" as="geometry" />
        </mxCell>
        <mxCell id="bBbA3ng675KR-_iwhl_5-16" value="" style="endArrow=open;endFill=1;endSize=12;html=1;rounded=0;" parent="1" edge="1">
          <mxGeometry width="160" relative="1" as="geometry">
            <mxPoint x="275" y="189.5" as="sourcePoint" />
            <mxPoint x="115" y="189.5" as="targetPoint" />
          </mxGeometry>
        </mxCell>
        <mxCell id="bBbA3ng675KR-_iwhl_5-18" value="2: Form nhập thông tin ()" style="text;html=1;align=center;verticalAlign=middle;resizable=0;points=[];autosize=1;strokeColor=none;fillColor=none;" parent="1" vertex="1">
          <mxGeometry x="120" y="168" width="160" height="30" as="geometry" />
        </mxCell>
        <mxCell id="bBbA3ng675KR-_iwhl_5-22" value="" style="endArrow=open;endFill=1;endSize=12;html=1;rounded=0;" parent="1" edge="1">
          <mxGeometry width="160" relative="1" as="geometry">
            <mxPoint x="120" y="240" as="sourcePoint" />
            <mxPoint x="280" y="240" as="targetPoint" />
          </mxGeometry>
        </mxCell>
        <mxCell id="bBbA3ng675KR-_iwhl_5-23" value="3: Check dữ liệu nhập ()" style="text;html=1;align=center;verticalAlign=middle;resizable=0;points=[];autosize=1;strokeColor=none;fillColor=none;" parent="1" vertex="1">
          <mxGeometry x="120" y="218" width="150" height="30" as="geometry" />
        </mxCell>
        <mxCell id="bBbA3ng675KR-_iwhl_5-24" value="" style="endArrow=open;endFill=1;endSize=12;html=1;rounded=0;" parent="1" edge="1">
          <mxGeometry width="160" relative="1" as="geometry">
            <mxPoint x="280" y="310" as="sourcePoint" />
            <mxPoint x="120" y="310" as="targetPoint" />
          </mxGeometry>
        </mxCell>
        <mxCell id="bBbA3ng675KR-_iwhl_5-26" value="4:Dữ liệu đúng định dạng ()" style="text;html=1;align=center;verticalAlign=middle;resizable=0;points=[];autosize=1;strokeColor=none;fillColor=none;" parent="1" vertex="1">
          <mxGeometry x="115" y="288" width="170" height="30" as="geometry" />
        </mxCell>
        <mxCell id="bBbA3ng675KR-_iwhl_5-28" value="" style="endArrow=open;endFill=1;endSize=12;html=1;rounded=0;" parent="1" edge="1">
          <mxGeometry width="160" relative="1" as="geometry">
            <mxPoint x="120" y="390" as="sourcePoint" />
            <mxPoint x="280" y="390" as="targetPoint" />
          </mxGeometry>
        </mxCell>
        <mxCell id="bBbA3ng675KR-_iwhl_5-29" value="5: Nhập xong đồng ý&amp;nbsp; ()" style="text;html=1;align=center;verticalAlign=middle;resizable=0;points=[];autosize=1;strokeColor=none;fillColor=none;" parent="1" vertex="1">
          <mxGeometry x="135" y="360" width="150" height="30" as="geometry" />
        </mxCell>
        <mxCell id="bBbA3ng675KR-_iwhl_5-30" value="D:DateBase" style="shape=umlLifeline;perimeter=lifelinePerimeter;whiteSpace=wrap;html=1;container=1;dropTarget=0;collapsible=0;recursiveResize=0;outlineConnect=0;portConstraint=eastwest;newEdgeStyle={&quot;curved&quot;:0,&quot;rounded&quot;:0};" parent="1" vertex="1">
          <mxGeometry x="440" y="40" width="100" height="840" as="geometry" />
        </mxCell>
        <mxCell id="bBbA3ng675KR-_iwhl_5-45" value="" style="html=1;points=[[0,0,0,0,5],[0,1,0,0,-5],[1,0,0,0,5],[1,1,0,0,-5]];perimeter=orthogonalPerimeter;outlineConnect=0;targetShapes=umlLifeline;portConstraint=eastwest;newEdgeStyle={&quot;curved&quot;:0,&quot;rounded&quot;:0};" parent="bBbA3ng675KR-_iwhl_5-30" vertex="1">
          <mxGeometry x="45" y="400" width="10" height="110" as="geometry" />
        </mxCell>
        <mxCell id="bBbA3ng675KR-_iwhl_5-69" value="" style="html=1;points=[[0,0,0,0,5],[0,1,0,0,-5],[1,0,0,0,5],[1,1,0,0,-5]];perimeter=orthogonalPerimeter;outlineConnect=0;targetShapes=umlLifeline;portConstraint=eastwest;newEdgeStyle={&quot;curved&quot;:0,&quot;rounded&quot;:0};" parent="bBbA3ng675KR-_iwhl_5-30" vertex="1">
          <mxGeometry x="45" y="630" width="10" height="80" as="geometry" />
        </mxCell>
        <mxCell id="bBbA3ng675KR-_iwhl_5-32" value="" style="endArrow=open;endFill=1;endSize=12;html=1;rounded=0;" parent="1" source="bBbA3ng675KR-_iwhl_5-27" target="bBbA3ng675KR-_iwhl_5-30" edge="1">
          <mxGeometry width="160" relative="1" as="geometry">
            <mxPoint x="300" y="440" as="sourcePoint" />
            <mxPoint x="445" y="440" as="targetPoint" />
            <Array as="points">
              <mxPoint x="400" y="440" />
            </Array>
          </mxGeometry>
        </mxCell>
        <mxCell id="bBbA3ng675KR-_iwhl_5-34" value="" style="html=1;points=[[0,0,0,0,5],[0,1,0,0,-5],[1,0,0,0,5],[1,1,0,0,-5]];perimeter=orthogonalPerimeter;outlineConnect=0;targetShapes=umlLifeline;portConstraint=eastwest;newEdgeStyle={&quot;curved&quot;:0,&quot;rounded&quot;:0};" parent="1" vertex="1">
          <mxGeometry x="115" y="120" width="10" height="40" as="geometry" />
        </mxCell>
        <mxCell id="bBbA3ng675KR-_iwhl_5-43" value="6 : Check điều kiện ()" style="text;html=1;align=center;verticalAlign=middle;resizable=0;points=[];autosize=1;strokeColor=none;fillColor=none;" parent="1" vertex="1">
          <mxGeometry x="310" y="410" width="140" height="30" as="geometry" />
        </mxCell>
        <mxCell id="bBbA3ng675KR-_iwhl_5-55" value="" style="endArrow=open;endSize=12;dashed=1;html=1;rounded=0;" parent="1" edge="1">
          <mxGeometry width="160" relative="1" as="geometry">
            <mxPoint x="489.5" y="550" as="sourcePoint" />
            <mxPoint x="285" y="550" as="targetPoint" />
          </mxGeometry>
        </mxCell>
        <mxCell id="bBbA3ng675KR-_iwhl_5-57" value="Return" style="edgeLabel;html=1;align=center;verticalAlign=middle;resizable=0;points=[];" parent="bBbA3ng675KR-_iwhl_5-55" vertex="1" connectable="0">
          <mxGeometry x="0.1282" y="-2" relative="1" as="geometry">
            <mxPoint as="offset" />
          </mxGeometry>
        </mxCell>
        <mxCell id="bBbA3ng675KR-_iwhl_5-58" style="edgeStyle=orthogonalEdgeStyle;rounded=0;orthogonalLoop=1;jettySize=auto;html=1;entryX=-0.041;entryY=0.587;entryDx=0;entryDy=0;entryPerimeter=0;" parent="1" source="bBbA3ng675KR-_iwhl_5-27" target="bBbA3ng675KR-_iwhl_5-15" edge="1">
          <mxGeometry relative="1" as="geometry">
            <mxPoint x="40" y="540" as="sourcePoint" />
            <Array as="points">
              <mxPoint x="109" y="530" />
            </Array>
          </mxGeometry>
        </mxCell>
        <mxCell id="bBbA3ng675KR-_iwhl_5-59" value="7 Không đủ điều kiện ()" style="text;html=1;align=center;verticalAlign=middle;resizable=0;points=[];autosize=1;strokeColor=none;fillColor=none;" parent="1" vertex="1">
          <mxGeometry x="125" y="508" width="150" height="30" as="geometry" />
        </mxCell>
        <mxCell id="bBbA3ng675KR-_iwhl_5-60" value="" style="endArrow=open;endFill=1;endSize=12;html=1;rounded=0;" parent="1" edge="1">
          <mxGeometry width="160" relative="1" as="geometry">
            <mxPoint x="280" y="580" as="sourcePoint" />
            <mxPoint x="120" y="580" as="targetPoint" />
          </mxGeometry>
        </mxCell>
        <mxCell id="bBbA3ng675KR-_iwhl_5-62" value="7.1 : Đủ điều kiện ()&amp;nbsp;&lt;div&gt;trang thanh toán&lt;/div&gt;" style="text;html=1;align=center;verticalAlign=middle;resizable=0;points=[];autosize=1;strokeColor=none;fillColor=none;" parent="1" vertex="1">
          <mxGeometry x="145" y="545" width="130" height="40" as="geometry" />
        </mxCell>
        <mxCell id="bBbA3ng675KR-_iwhl_5-63" value="" style="endArrow=open;endFill=1;endSize=12;html=1;rounded=0;" parent="1" edge="1">
          <mxGeometry width="160" relative="1" as="geometry">
            <mxPoint x="125" y="660" as="sourcePoint" />
            <mxPoint x="285" y="660" as="targetPoint" />
          </mxGeometry>
        </mxCell>
        <mxCell id="bBbA3ng675KR-_iwhl_5-64" value="8 : Thanh toán" style="text;html=1;align=center;verticalAlign=middle;resizable=0;points=[];autosize=1;strokeColor=none;fillColor=none;" parent="1" vertex="1">
          <mxGeometry x="135" y="638" width="100" height="30" as="geometry" />
        </mxCell>
        <mxCell id="bBbA3ng675KR-_iwhl_5-67" value="9 : Check thanh toán" style="html=1;verticalAlign=bottom;endArrow=block;curved=0;rounded=0;" parent="1" source="bBbA3ng675KR-_iwhl_5-65" target="bBbA3ng675KR-_iwhl_5-30" edge="1">
          <mxGeometry relative="1" as="geometry">
            <mxPoint x="295" y="707" as="sourcePoint" />
            <mxPoint x="660" y="650" as="targetPoint" />
          </mxGeometry>
        </mxCell>
        <mxCell id="bBbA3ng675KR-_iwhl_5-68" value="return" style="html=1;verticalAlign=bottom;endArrow=open;dashed=1;endSize=8;curved=0;rounded=0;" parent="1" edge="1">
          <mxGeometry relative="1" as="geometry">
            <mxPoint x="280" y="750" as="targetPoint" />
            <mxPoint x="490" y="750" as="sourcePoint" />
          </mxGeometry>
        </mxCell>
        <mxCell id="bBbA3ng675KR-_iwhl_5-71" value="" style="endArrow=open;endFill=1;endSize=12;html=1;rounded=0;" parent="1" edge="1">
          <mxGeometry width="160" relative="1" as="geometry">
            <mxPoint x="285" y="760" as="sourcePoint" />
            <mxPoint x="125" y="760" as="targetPoint" />
          </mxGeometry>
        </mxCell>
        <mxCell id="bBbA3ng675KR-_iwhl_5-72" value="10 : Thông báo trúng tuyển ()" style="text;html=1;align=center;verticalAlign=middle;resizable=0;points=[];autosize=1;strokeColor=none;fillColor=none;" parent="1" vertex="1">
          <mxGeometry x="110" y="730" width="180" height="30" as="geometry" />
        </mxCell>
      </root>
    </mxGraphModel>
  </diagram>
</mxfile>
